<mxfile host="app.diagrams.net" modified="2023-01-27T22:23:55.679Z" agent="5.0 (X11)" version="20.8.3" etag="9e-pinyKVJ09ci7DhzFb" type="github">
  <diagram id="w7UeyHjINGeoJfNCUkTX" name="Page-1">
    <mxGraphModel dx="1434" dy="721" grid="1" gridSize="10" guides="1" tooltips="1" connect="1" arrows="1" fold="1" page="1" pageScale="1" pageWidth="850" pageHeight="1100" math="0" shadow="0">
      <root>
        <mxCell id="0" />
        <mxCell id="1" parent="0" />
        <mxCell id="JQVqLTnl7qz9SuRQ6DIX-23" value="" style="rounded=0;whiteSpace=wrap;html=1;" vertex="1" parent="1">
          <mxGeometry x="50" y="155" width="690" height="270" as="geometry" />
        </mxCell>
        <mxCell id="JQVqLTnl7qz9SuRQ6DIX-22" value="" style="rounded=0;whiteSpace=wrap;html=1;" vertex="1" parent="1">
          <mxGeometry x="50" y="580" width="690" height="270" as="geometry" />
        </mxCell>
        <mxCell id="JQVqLTnl7qz9SuRQ6DIX-6" style="edgeStyle=orthogonalEdgeStyle;rounded=0;orthogonalLoop=1;jettySize=auto;html=1;" edge="1" parent="1" source="JQVqLTnl7qz9SuRQ6DIX-1" target="JQVqLTnl7qz9SuRQ6DIX-5">
          <mxGeometry relative="1" as="geometry" />
        </mxCell>
        <mxCell id="JQVqLTnl7qz9SuRQ6DIX-10" style="edgeStyle=orthogonalEdgeStyle;rounded=0;orthogonalLoop=1;jettySize=auto;html=1;entryX=0;entryY=0.5;entryDx=0;entryDy=0;entryPerimeter=0;" edge="1" parent="1" source="JQVqLTnl7qz9SuRQ6DIX-1" target="JQVqLTnl7qz9SuRQ6DIX-9">
          <mxGeometry relative="1" as="geometry" />
        </mxCell>
        <mxCell id="JQVqLTnl7qz9SuRQ6DIX-1" value="" style="rounded=0;whiteSpace=wrap;html=1;" vertex="1" parent="1">
          <mxGeometry x="360" y="330" width="120" height="60" as="geometry" />
        </mxCell>
        <mxCell id="JQVqLTnl7qz9SuRQ6DIX-2" value="&lt;div&gt;Redis&lt;/div&gt;&lt;div&gt;Module&lt;br&gt;&lt;/div&gt;" style="text;html=1;strokeColor=none;fillColor=none;align=center;verticalAlign=middle;whiteSpace=wrap;rounded=0;" vertex="1" parent="1">
          <mxGeometry x="390" y="340" width="60" height="30" as="geometry" />
        </mxCell>
        <mxCell id="JQVqLTnl7qz9SuRQ6DIX-4" style="edgeStyle=orthogonalEdgeStyle;rounded=0;orthogonalLoop=1;jettySize=auto;html=1;" edge="1" parent="1" source="JQVqLTnl7qz9SuRQ6DIX-3" target="JQVqLTnl7qz9SuRQ6DIX-1">
          <mxGeometry relative="1" as="geometry" />
        </mxCell>
        <mxCell id="JQVqLTnl7qz9SuRQ6DIX-3" value="ts input" style="strokeWidth=2;html=1;shape=mxgraph.flowchart.start_2;whiteSpace=wrap;" vertex="1" parent="1">
          <mxGeometry x="100" y="330" width="60" height="60" as="geometry" />
        </mxCell>
        <mxCell id="JQVqLTnl7qz9SuRQ6DIX-18" style="edgeStyle=orthogonalEdgeStyle;rounded=0;orthogonalLoop=1;jettySize=auto;html=1;entryX=0.5;entryY=0;entryDx=0;entryDy=0;entryPerimeter=0;dashed=1;dashPattern=12 12;" edge="1" parent="1" source="JQVqLTnl7qz9SuRQ6DIX-5" target="JQVqLTnl7qz9SuRQ6DIX-16">
          <mxGeometry relative="1" as="geometry" />
        </mxCell>
        <mxCell id="JQVqLTnl7qz9SuRQ6DIX-5" value="&lt;div&gt;ts output 2&lt;/div&gt;" style="strokeWidth=2;html=1;shape=mxgraph.flowchart.start_2;whiteSpace=wrap;" vertex="1" parent="1">
          <mxGeometry x="640" y="330" width="60" height="60" as="geometry" />
        </mxCell>
        <mxCell id="JQVqLTnl7qz9SuRQ6DIX-7" value="TS.ADD input 123412342134 1.33234" style="text;html=1;strokeColor=none;fillColor=none;align=center;verticalAlign=middle;whiteSpace=wrap;rounded=0;" vertex="1" parent="1">
          <mxGeometry x="70" y="290" width="220" as="geometry" />
        </mxCell>
        <mxCell id="JQVqLTnl7qz9SuRQ6DIX-8" value="&lt;div align=&quot;left&quot;&gt;Redis RtBot module:&lt;/div&gt;&lt;div align=&quot;left&quot;&gt;&lt;ul&gt;&lt;li&gt;&amp;nbsp;detects new entries in the `input` key&lt;/li&gt;&lt;li&gt;looks for an existing `Pipeline` associated to the given input key&lt;/li&gt;&lt;li&gt;If any, sends the new point to the pipeline&lt;/li&gt;&lt;li&gt;If any result, write the result in the previously declared output ts key&lt;br&gt;&lt;/li&gt;&lt;/ul&gt;&lt;/div&gt;" style="text;html=1;strokeColor=none;fillColor=none;align=left;verticalAlign=middle;whiteSpace=wrap;rounded=0;" vertex="1" parent="1">
          <mxGeometry x="282.5" y="170" width="265" height="120" as="geometry" />
        </mxCell>
        <mxCell id="JQVqLTnl7qz9SuRQ6DIX-9" value="ts output 1" style="strokeWidth=2;html=1;shape=mxgraph.flowchart.start_2;whiteSpace=wrap;" vertex="1" parent="1">
          <mxGeometry x="640" y="190" width="60" height="60" as="geometry" />
        </mxCell>
        <mxCell id="JQVqLTnl7qz9SuRQ6DIX-11" style="edgeStyle=orthogonalEdgeStyle;rounded=0;orthogonalLoop=1;jettySize=auto;html=1;" edge="1" parent="1" source="JQVqLTnl7qz9SuRQ6DIX-12" target="JQVqLTnl7qz9SuRQ6DIX-16">
          <mxGeometry relative="1" as="geometry" />
        </mxCell>
        <mxCell id="JQVqLTnl7qz9SuRQ6DIX-12" value="" style="rounded=0;whiteSpace=wrap;html=1;" vertex="1" parent="1">
          <mxGeometry x="360" y="680" width="120" height="60" as="geometry" />
        </mxCell>
        <mxCell id="JQVqLTnl7qz9SuRQ6DIX-19" style="edgeStyle=orthogonalEdgeStyle;rounded=0;orthogonalLoop=1;jettySize=auto;html=1;dashed=1;dashPattern=12 12;" edge="1" parent="1" source="JQVqLTnl7qz9SuRQ6DIX-13" target="JQVqLTnl7qz9SuRQ6DIX-2">
          <mxGeometry relative="1" as="geometry" />
        </mxCell>
        <mxCell id="JQVqLTnl7qz9SuRQ6DIX-13" value="&lt;div&gt;Companion&lt;/div&gt;&lt;div&gt;Server&lt;br&gt;&lt;/div&gt;" style="text;html=1;strokeColor=none;fillColor=none;align=center;verticalAlign=middle;whiteSpace=wrap;rounded=0;" vertex="1" parent="1">
          <mxGeometry x="390" y="690" width="60" height="30" as="geometry" />
        </mxCell>
        <mxCell id="JQVqLTnl7qz9SuRQ6DIX-14" style="edgeStyle=orthogonalEdgeStyle;rounded=0;orthogonalLoop=1;jettySize=auto;html=1;" edge="1" parent="1" source="JQVqLTnl7qz9SuRQ6DIX-15" target="JQVqLTnl7qz9SuRQ6DIX-12">
          <mxGeometry relative="1" as="geometry" />
        </mxCell>
        <mxCell id="JQVqLTnl7qz9SuRQ6DIX-17" style="edgeStyle=orthogonalEdgeStyle;rounded=0;orthogonalLoop=1;jettySize=auto;html=1;dashed=1;dashPattern=12 12;" edge="1" parent="1" source="JQVqLTnl7qz9SuRQ6DIX-15" target="JQVqLTnl7qz9SuRQ6DIX-3">
          <mxGeometry relative="1" as="geometry" />
        </mxCell>
        <mxCell id="JQVqLTnl7qz9SuRQ6DIX-15" value="&lt;div&gt;WS&lt;/div&gt;&lt;div&gt;input&lt;br&gt;&lt;/div&gt;" style="strokeWidth=2;html=1;shape=mxgraph.flowchart.start_2;whiteSpace=wrap;" vertex="1" parent="1">
          <mxGeometry x="100" y="680" width="60" height="60" as="geometry" />
        </mxCell>
        <mxCell id="JQVqLTnl7qz9SuRQ6DIX-16" value="&lt;div&gt;WS&lt;/div&gt;&lt;div&gt;output&lt;br&gt;&lt;/div&gt;" style="strokeWidth=2;html=1;shape=mxgraph.flowchart.start_2;whiteSpace=wrap;" vertex="1" parent="1">
          <mxGeometry x="640" y="680" width="60" height="60" as="geometry" />
        </mxCell>
        <mxCell id="JQVqLTnl7qz9SuRQ6DIX-24" value="REDIS" style="text;html=1;strokeColor=none;fillColor=none;align=center;verticalAlign=middle;whiteSpace=wrap;rounded=0;" vertex="1" parent="1">
          <mxGeometry x="70" y="180" width="60" height="30" as="geometry" />
        </mxCell>
        <mxCell id="JQVqLTnl7qz9SuRQ6DIX-25" value="WEB SERVER" style="text;html=1;strokeColor=none;fillColor=none;align=center;verticalAlign=middle;whiteSpace=wrap;rounded=0;" vertex="1" parent="1">
          <mxGeometry x="90" y="830" width="100" height="20" as="geometry" />
        </mxCell>
      </root>
    </mxGraphModel>
  </diagram>
</mxfile>
